# xmcd CD database file
#
# Track frame offsets:
#	150
#	24675
#	56427
#	99962
#	146825
#	190240
#	209205
#	243110
#
# Disc length: 3932 seconds
#
# Revision: 0
# Processed by: cddbd v1.5PL3 Copyright (c) Steve Scherf et al.
# Submitted via: freeDB plugin v1.0
#
DISCID=710f5a08
DTITLE=ハリー・ラビノヴィッツ指揮/ロンドン交響楽団（１）　バリー・ワーズワース指揮/ロンドン交響楽団（２〜８） - ０８　ウィリアム・テル/序曲名曲集
DYEAR=1900
DGENRE=Classical
TTITLE0=歌劇「ルスランとリュドミラ」序曲
TTITLE1=喜歌劇「騎兵隊」序曲
TTITLE2=劇音楽「詩人と農夫」序曲
TTITLE3=歌劇「魔弾の射手」序曲
TTITLE4=喜歌劇「天国と地獄」序曲
TTITLE5=歌劇「フィガロの結婚」序曲
TTITLE6=歌劇「セヴィリアの理髪師」序曲
TTITLE7=歌劇「ウィリアム・テル｣序曲
EXTD=
EXTT0=
EXTT1=
EXTT2=
EXTT3=
EXTT4=
EXTT5=
EXTT6=
EXTT7=
PLAYORDER=
